<?xml version="1.0" encoding="UTF-8" standalone="no"?>
<!DOCTYPE svg PUBLIC "-//W3C//DTD SVG 1.1//EN"
 "http://www.w3.org/Graphics/SVG/1.1/DTD/svg11.dtd">
<!-- Generated by graphviz version 7.0.5 (20221223.1930)
 -->
<!-- Title: workflow Pages: 1 -->
<svg width="312pt" height="497pt"
 viewBox="0.00 0.00 321.00 511.00" xmlns="http://www.w3.org/2000/svg" xmlns:xlink="http://www.w3.org/1999/xlink">
<g id="graph0" class="graph" transform="scale(0.972222 0.972222) rotate(0) translate(4 507)">
<title>workflow</title>
<g id="clust1" class="cluster">
<title>cluster_inputs</title>
<polygon fill="none" stroke="black" stroke-dasharray="5,2" points="51,-440 51,-495 305,-495 305,-440 51,-440"/>
<text text-anchor="middle" x="101" y="-483" font-family="Times,serif" font-size="10.00">Workflow Inputs</text>
</g>
<g id="clust2" class="cluster">
<title>cluster_outputs</title>
<polygon fill="none" stroke="black" stroke-dasharray="5,2" points="8,-8 8,-63 128,-63 128,-8 8,-8"/>
<text text-anchor="middle" x="62" y="-15" font-family="Times,serif" font-size="10.00">Workflow Outputs</text>
</g>
<!-- vcfdir -->
<g id="node1" class="node">
<title>vcfdir</title>
<polygon fill="#94ddf4" stroke="black" points="59,-448.5 59,-467.5 103,-467.5 103,-448.5 59,-448.5"/>
<text text-anchor="middle" x="81" y="-455.5" font-family="Helvetica,sans-Serif" font-size="10.00">vcfdir</text>
</g>
<!-- gather_muse_snvs_for_cleaning -->
<g id="node9" class="node">
<title>gather_muse_snvs_for_cleaning</title>
<polygon fill="lightgoldenrodyellow" stroke="black" points="1.5,-395.5 1.5,-414.5 174.5,-414.5 174.5,-395.5 1.5,-395.5"/>
<text text-anchor="middle" x="88" y="-402.5" font-family="Helvetica,sans-Serif" font-size="10.00">gather_muse_snvs_for_cleaning</text>
</g>
<!-- vcfdir&#45;&gt;gather_muse_snvs_for_cleaning -->
<g id="edge13" class="edge">
<title>vcfdir&#45;&gt;gather_muse_snvs_for_cleaning</title>
<path fill="none" stroke="black" d="M82.16,-448.58C83.12,-441.52 84.54,-431.24 85.73,-422.55"/>
<polygon fill="black" stroke="black" points="88.14,-423.03 86.66,-415.76 83.28,-422.37 88.14,-423.03"/>
<text text-anchor="middle" x="96.5" y="-425.6" font-family="Helvetica,sans-Serif" font-size="8.00">vcfdir</text>
</g>
<!-- pass_filter -->
<g id="node11" class="node">
<title>pass_filter</title>
<polygon fill="lightgoldenrodyellow" stroke="black" points="178.5,-395.5 178.5,-414.5 245.5,-414.5 245.5,-395.5 178.5,-395.5"/>
<text text-anchor="middle" x="212" y="-402.5" font-family="Helvetica,sans-Serif" font-size="10.00">pass_filter</text>
</g>
<!-- vcfdir&#45;&gt;pass_filter -->
<g id="edge4" class="edge">
<title>vcfdir&#45;&gt;pass_filter</title>
<path fill="none" stroke="black" d="M91.56,-448.59C96.07,-445.41 101.55,-442.06 107,-440 130.1,-431.26 138.49,-439.58 162,-432 172.23,-428.7 182.88,-423.45 191.71,-418.52"/>
<polygon fill="black" stroke="black" points="192.81,-420.72 197.64,-415.1 190.36,-416.48 192.81,-420.72"/>
<text text-anchor="middle" x="192.5" y="-425.6" font-family="Helvetica,sans-Serif" font-size="8.00">vcfdir</text>
</g>
<!-- ref -->
<g id="node2" class="node">
<title>ref</title>
<polygon fill="#94ddf4" stroke="black" points="267,-448.5 267,-467.5 297,-467.5 297,-448.5 267,-448.5"/>
<text text-anchor="middle" x="282" y="-455.5" font-family="Helvetica,sans-Serif" font-size="10.00">ref</text>
</g>
<!-- normalize -->
<g id="node13" class="node">
<title>normalize</title>
<polygon fill="lightgoldenrodyellow" stroke="black" points="148.5,-215.5 148.5,-234.5 213.5,-234.5 213.5,-215.5 148.5,-215.5"/>
<text text-anchor="middle" x="181" y="-222.5" font-family="Helvetica,sans-Serif" font-size="10.00">normalize</text>
</g>
<!-- ref&#45;&gt;normalize -->
<g id="edge7" class="edge">
<title>ref&#45;&gt;normalize</title>
<path fill="none" stroke="black" d="M279.9,-448.76C277.53,-438.73 274,-421.24 274,-406 274,-406 274,-406 274,-269 274,-244.31 246.66,-233.75 221.62,-229.26"/>
<polygon fill="black" stroke="black" points="222.06,-226.85 214.76,-228.19 221.3,-231.69 222.06,-226.85"/>
<text text-anchor="middle" x="280" y="-335.6" font-family="Helvetica,sans-Serif" font-size="8.00">ref</text>
</g>
<!-- out_dir -->
<g id="node3" class="node">
<title>out_dir</title>
<polygon fill="#94ddf4" stroke="black" points="107,-448.5 107,-467.5 157,-467.5 157,-448.5 107,-448.5"/>
<text text-anchor="middle" x="132" y="-455.5" font-family="Helvetica,sans-Serif" font-size="10.00">out_dir</text>
</g>
<!-- filesToPreprocess -->
<g id="node4" class="node">
<title>filesToPreprocess</title>
<polygon fill="#94ddf4" stroke="black" points="161.5,-448.5 161.5,-467.5 262.5,-467.5 262.5,-448.5 161.5,-448.5"/>
<text text-anchor="middle" x="212" y="-455.5" font-family="Helvetica,sans-Serif" font-size="10.00">filesToPreprocess</text>
</g>
<!-- filesToPreprocess&#45;&gt;gather_muse_snvs_for_cleaning -->
<g id="edge12" class="edge">
<title>filesToPreprocess&#45;&gt;gather_muse_snvs_for_cleaning</title>
<path fill="none" stroke="black" d="M189.71,-448.52C177.37,-443.77 161.79,-437.68 148,-432 137.04,-427.49 125.04,-422.33 114.68,-417.81"/>
<polygon fill="black" stroke="black" points="115.89,-415.67 108.5,-415.1 113.92,-420.15 115.89,-415.67"/>
<text text-anchor="middle" x="156.5" y="-425.6" font-family="Helvetica,sans-Serif" font-size="8.00">vcfs</text>
</g>
<!-- filesToPreprocess&#45;&gt;pass_filter -->
<g id="edge5" class="edge">
<title>filesToPreprocess&#45;&gt;pass_filter</title>
<path fill="none" stroke="black" d="M212,-448.58C212,-441.52 212,-431.24 212,-422.55"/>
<polygon fill="black" stroke="black" points="214.45,-422.78 212,-415.78 209.55,-422.78 214.45,-422.78"/>
<text text-anchor="middle" x="235" y="-425.6" font-family="Helvetica,sans-Serif" font-size="8.00">filesToFilter</text>
</g>
<!-- preprocessedFiles -->
<g id="node5" class="node">
<title>preprocessedFiles</title>
<polygon fill="#94ddf4" stroke="black" points="16,-35.5 16,-54.5 120,-54.5 120,-35.5 16,-35.5"/>
<text text-anchor="middle" x="68" y="-42.5" font-family="Helvetica,sans-Serif" font-size="10.00">preprocessedFiles</text>
</g>
<!-- populate_output_record -->
<g id="node6" class="node">
<title>populate_output_record</title>
<polygon fill="lightgoldenrodyellow" stroke="black" points="2,-80.5 2,-99.5 134,-99.5 134,-80.5 2,-80.5"/>
<text text-anchor="middle" x="68" y="-87.5" font-family="Helvetica,sans-Serif" font-size="10.00">populate_output_record</text>
</g>
<!-- populate_output_record&#45;&gt;preprocessedFiles -->
<g id="edge17" class="edge">
<title>populate_output_record&#45;&gt;preprocessedFiles</title>
<path fill="none" stroke="black" d="M68,-80.71C68,-75.59 68,-68.85 68,-62.67"/>
<polygon fill="black" stroke="black" points="70.45,-62.78 68,-55.78 65.55,-62.78 70.45,-62.78"/>
</g>
<!-- filter_for_indel -->
<g id="node7" class="node">
<title>filter_for_indel</title>
<polygon fill="lightgoldenrodyellow" stroke="black" points="137.5,-260.5 137.5,-279.5 224.5,-279.5 224.5,-260.5 137.5,-260.5"/>
<text text-anchor="middle" x="181" y="-267.5" font-family="Helvetica,sans-Serif" font-size="10.00">filter_for_indel</text>
</g>
<!-- filter_for_indel&#45;&gt;normalize -->
<g id="edge6" class="edge">
<title>filter_for_indel&#45;&gt;normalize</title>
<path fill="none" stroke="black" d="M181,-260.71C181,-255.59 181,-248.85 181,-242.67"/>
<polygon fill="black" stroke="black" points="183.45,-242.78 181,-235.78 178.55,-242.78 183.45,-242.78"/>
<text text-anchor="middle" x="187.5" y="-245.6" font-family="Helvetica,sans-Serif" font-size="8.00">vcf</text>
</g>
<!-- gather_clean_vcfs -->
<g id="node8" class="node">
<title>gather_clean_vcfs</title>
<polygon fill="lightgoldenrodyellow" stroke="black" points="128.5,-305.5 128.5,-324.5 233.5,-324.5 233.5,-305.5 128.5,-305.5"/>
<text text-anchor="middle" x="181" y="-312.5" font-family="Helvetica,sans-Serif" font-size="10.00">gather_clean_vcfs</text>
</g>
<!-- gather_clean_vcfs&#45;&gt;populate_output_record -->
<g id="edge2" class="edge">
<title>gather_clean_vcfs&#45;&gt;populate_output_record</title>
<path fill="none" stroke="black" d="M132.25,-305.52C99.39,-298.36 62,-286.76 62,-271 62,-271 62,-271 62,-134 62,-125.13 63.27,-115.32 64.64,-107.32"/>
<polygon fill="black" stroke="black" points="67,-108.02 65.89,-100.68 62.19,-107.11 67,-108.02"/>
<text text-anchor="middle" x="87.5" y="-200.6" font-family="Helvetica,sans-Serif" font-size="8.00">cleanedVcfs</text>
</g>
<!-- gather_clean_vcfs&#45;&gt;filter_for_indel -->
<g id="edge9" class="edge">
<title>gather_clean_vcfs&#45;&gt;filter_for_indel</title>
<path fill="none" stroke="black" d="M181,-305.71C181,-300.59 181,-293.85 181,-287.67"/>
<polygon fill="black" stroke="black" points="183.45,-287.78 181,-280.78 178.55,-287.78 183.45,-287.78"/>
<text text-anchor="middle" x="193" y="-290.6" font-family="Helvetica,sans-Serif" font-size="8.00">in_vcf</text>
</g>
<!-- clean_muse -->
<g id="node15" class="node">
<title>clean_muse</title>
<polygon fill="lightgoldenrodyellow" stroke="black" points="83.5,-350.5 83.5,-369.5 158.5,-369.5 158.5,-350.5 83.5,-350.5"/>
<text text-anchor="middle" x="121" y="-357.5" font-family="Helvetica,sans-Serif" font-size="10.00">clean_muse</text>
</g>
<!-- gather_muse_snvs_for_cleaning&#45;&gt;clean_muse -->
<g id="edge14" class="edge">
<title>gather_muse_snvs_for_cleaning&#45;&gt;clean_muse</title>
<path fill="none" stroke="black" d="M94.36,-395.71C98.65,-390.12 104.44,-382.58 109.52,-375.96"/>
<polygon fill="black" stroke="black" points="111.42,-377.51 113.74,-370.47 107.53,-374.53 111.42,-377.51"/>
<text text-anchor="middle" x="113.5" y="-380.6" font-family="Helvetica,sans-Serif" font-size="8.00">vcf</text>
</g>
<!-- null_filter_extracted_snvs -->
<g id="node10" class="node">
<title>null_filter_extracted_snvs</title>
<polygon fill="lightgoldenrodyellow" stroke="black" points="69,-125.5 69,-144.5 211,-144.5 211,-125.5 69,-125.5"/>
<text text-anchor="middle" x="140" y="-132.5" font-family="Helvetica,sans-Serif" font-size="10.00">null_filter_extracted_snvs</text>
</g>
<!-- null_filter_extracted_snvs&#45;&gt;populate_output_record -->
<g id="edge1" class="edge">
<title>null_filter_extracted_snvs&#45;&gt;populate_output_record</title>
<path fill="none" stroke="black" d="M125.78,-125.5C115.42,-119.32 101.22,-110.84 89.48,-103.83"/>
<polygon fill="black" stroke="black" points="90.76,-101.74 83.49,-100.25 88.25,-105.95 90.76,-101.74"/>
<text text-anchor="middle" x="139" y="-110.6" font-family="Helvetica,sans-Serif" font-size="8.00">extractedSnvs</text>
</g>
<!-- clean -->
<g id="node12" class="node">
<title>clean</title>
<polygon fill="lightgoldenrodyellow" stroke="black" points="190.5,-350.5 190.5,-369.5 233.5,-369.5 233.5,-350.5 190.5,-350.5"/>
<text text-anchor="middle" x="212" y="-357.5" font-family="Helvetica,sans-Serif" font-size="10.00">clean</text>
</g>
<!-- pass_filter&#45;&gt;clean -->
<g id="edge3" class="edge">
<title>pass_filter&#45;&gt;clean</title>
<path fill="none" stroke="black" d="M212,-395.71C212,-390.59 212,-383.85 212,-377.67"/>
<polygon fill="black" stroke="black" points="214.45,-377.78 212,-370.78 209.55,-377.78 214.45,-377.78"/>
<text text-anchor="middle" x="218.5" y="-380.6" font-family="Helvetica,sans-Serif" font-size="8.00">vcf</text>
</g>
<!-- clean&#45;&gt;gather_clean_vcfs -->
<g id="edge11" class="edge">
<title>clean&#45;&gt;gather_clean_vcfs</title>
<path fill="none" stroke="black" d="M210.82,-350.67C209.74,-345.25 207.71,-338.24 204,-333 203.28,-331.99 202.49,-331.01 201.63,-330.07"/>
<polygon fill="black" stroke="black" points="203.37,-328.34 196.53,-325.47 200.09,-331.98 203.37,-328.34"/>
<text text-anchor="middle" x="229.5" y="-335.6" font-family="Helvetica,sans-Serif" font-size="8.00">clean_vcfs</text>
</g>
<!-- extract_snv -->
<g id="node14" class="node">
<title>extract_snv</title>
<polygon fill="lightgoldenrodyellow" stroke="black" points="132,-170.5 132,-189.5 206,-189.5 206,-170.5 132,-170.5"/>
<text text-anchor="middle" x="169" y="-177.5" font-family="Helvetica,sans-Serif" font-size="10.00">extract_snv</text>
</g>
<!-- normalize&#45;&gt;extract_snv -->
<g id="edge8" class="edge">
<title>normalize&#45;&gt;extract_snv</title>
<path fill="none" stroke="black" d="M178.69,-215.71C177.23,-210.47 175.29,-203.53 173.53,-197.24"/>
<polygon fill="black" stroke="black" points="175.95,-196.81 171.71,-190.72 171.24,-198.12 175.95,-196.81"/>
<text text-anchor="middle" x="182.5" y="-200.6" font-family="Helvetica,sans-Serif" font-size="8.00">vcf</text>
</g>
<!-- extract_snv&#45;&gt;null_filter_extracted_snvs -->
<g id="edge16" class="edge">
<title>extract_snv&#45;&gt;null_filter_extracted_snvs</title>
<path fill="none" stroke="black" d="M163.41,-170.71C159.64,-165.12 154.55,-157.58 150.09,-150.96"/>
<polygon fill="black" stroke="black" points="152.37,-149.95 146.42,-145.52 148.3,-152.69 152.37,-149.95"/>
<text text-anchor="middle" x="187.5" y="-155.6" font-family="Helvetica,sans-Serif" font-size="8.00">extracted_snvs</text>
</g>
<!-- clean_muse&#45;&gt;gather_clean_vcfs -->
<g id="edge10" class="edge">
<title>clean_muse&#45;&gt;gather_clean_vcfs</title>
<path fill="none" stroke="black" d="M122.99,-350.71C124.75,-345.03 127.86,-337.69 133,-333 134.96,-331.21 137.12,-329.61 139.4,-328.18"/>
<polygon fill="black" stroke="black" points="140.21,-330.52 145.23,-325.06 137.9,-326.2 140.21,-330.52"/>
<text text-anchor="middle" x="168" y="-335.6" font-family="Helvetica,sans-Serif" font-size="8.00">clean_muse_vcfs</text>
</g>
<!-- clean_muse&#45;&gt;null_filter_extracted_snvs -->
<g id="edge15" class="edge">
<title>clean_muse&#45;&gt;null_filter_extracted_snvs</title>
<path fill="none" stroke="black" d="M121,-350.76C121,-342.1 121,-328.09 121,-316 121,-316 121,-316 121,-179 121,-169.33 125.07,-159.4 129.44,-151.52"/>
<polygon fill="black" stroke="black" points="131.44,-152.95 132.99,-145.7 127.25,-150.4 131.44,-152.95"/>
<text text-anchor="middle" x="143" y="-245.6" font-family="Helvetica,sans-Serif" font-size="8.00">muse_files</text>
</g>
</g>
</svg>
